# Blender v2.78 (sub 0) OBJ File: 'FormationPoint.blend'
# www.blender.org
mtllib FormationPoint.mtl
o Cube
v -0.000000 0.000000 2.000000
v -1.000000 -0.500000 -1.000000
v 1.000000 -0.500000 -1.000000
v -1.000000 0.500000 -1.000000
v 1.000000 0.500000 -1.000000
v 1.000000 -0.500000 0.500000
v -1.000000 -0.500000 0.500000
v 1.000000 0.500000 0.500000
v -1.000000 0.500000 0.499999
vn 0.0000 -1.0000 0.0000
vn 0.0000 1.0000 0.0000
vn -1.0000 -0.0000 -0.0000
vn 0.0000 -0.0000 -1.0000
vn 1.0000 0.0000 0.0000
vn 0.8321 0.0000 0.5547
vn -0.8321 0.0000 0.5547
vn -0.0000 0.9487 0.3162
vn -0.0000 -0.9487 0.3162
usemtl Material
s off
f 6//1 7//1 2//1 3//1
f 8//2 5//2 4//2 9//2
f 7//3 9//3 4//3 2//3
f 2//4 4//4 5//4 3//4
f 8//5 6//5 3//5 5//5
f 1//6 6//6 8//6
f 1//7 9//7 7//7
f 1//8 8//8 9//8
f 1//9 7//9 6//9
