# Blender v2.78 (sub 0) OBJ File: 'Ship2.blend'
# www.blender.org
mtllib Ship2.mtl
o Cube
v -2.999999 -1.000000 1.000000
v -2.999999 -1.000000 -0.999999
v 2.999999 -1.000000 -1.000000
v 2.999998 -1.000000 1.000000
v -3.000000 1.000000 0.999999
v -2.999997 1.000000 -1.000000
v 3.000000 1.000000 -0.999999
v 2.999998 1.000000 0.999999
v -0.999999 -1.000000 3.999998
v 0.999999 -1.000000 3.999999
v -1.000000 -1.000000 -0.999999
v 1.000000 -1.000000 -0.999999
v -1.000000 1.000000 3.999998
v 0.999999 1.000000 3.999998
v -0.999998 1.000000 -1.000000
v 1.000001 1.000000 -1.000000
v -0.999999 -1.000000 5.999997
v 0.999999 -1.000000 5.999998
v -1.000000 1.000000 5.999997
v 0.999999 1.000000 5.999997
v 0.999999 -1.000000 -2.999998
v 2.999998 -1.000000 -2.999999
v -3.000000 -1.000000 -2.999998
v -2.999998 1.000000 -2.999999
v 2.999999 1.000000 -2.999998
v 1.000000 1.000000 -2.999998
v -1.000001 -1.000000 -2.999998
v -0.999999 1.000000 -2.999999
vn 0.0000 -1.0000 0.0000
vn 0.0000 1.0000 0.0000
vn -1.0000 0.0000 -0.0000
vn 1.0000 -0.0000 0.0000
vn 0.8321 -0.0000 0.5547
vn -0.8321 -0.0000 0.5547
vn 0.0000 -0.0000 -1.0000
vn 0.0000 0.0000 1.0000
usemtl Material
s off
f 10//1 12//1 3//1 4//1
f 14//2 8//2 7//2 16//2
f 1//3 5//3 6//3 2//3
f 11//1 2//1 23//1 27//1
f 3//4 7//4 8//4 4//4
f 14//5 10//5 4//5 8//5
f 5//6 1//6 9//6 13//6
f 13//3 9//3 17//3 19//3
f 6//2 15//2 28//2 24//2
f 11//7 15//7 16//7 12//7
f 5//2 13//2 15//2 6//2
f 13//2 14//2 16//2 15//2
f 1//1 2//1 11//1 9//1
f 9//1 11//1 12//1 10//1
f 19//8 17//8 18//8 20//8
f 10//4 14//4 20//4 18//4
f 14//2 13//2 19//2 20//2
f 9//1 10//1 18//1 17//1
f 21//7 26//7 25//7 22//7
f 23//7 24//7 28//7 27//7
f 3//1 12//1 21//1 22//1
f 12//3 16//3 26//3 21//3
f 16//2 7//2 25//2 26//2
f 7//4 3//4 22//4 25//4
f 2//3 6//3 24//3 23//3
f 15//4 11//4 27//4 28//4
